<svg width="579" height="361" viewBox="0 0 579 361" fill="none" xmlns="http://www.w3.org/2000/svg">
<path d="M0 20.6413C0 5.3174 16.1 -4.64793 29.7966 2.20067L147.972 61.3502V200.168C147.972 219.674 158.992 237.527 176.417 246.248L283.068 299.63V340.352C283.068 355.675 266.968 365.641 253.271 358.779L28.4447 246.248C11.0201 237.527 0 219.688 0 200.168V20.6413ZM147.972 20.6413C147.972 5.3174 164.072 -4.64793 177.769 2.21435L295.945 61.3638V200.182C295.945 219.688 306.965 237.541 324.39 246.262L431.041 299.643V340.366C431.041 355.689 414.94 365.654 401.244 358.792L283.068 299.643V160.826C283.068 141.306 272.048 123.466 254.623 114.744L147.972 61.3638V20.6413ZM295.931 20.6413C295.931 5.3174 312.032 -4.64793 325.728 2.21435L550.555 114.744C567.993 123.466 579 141.306 579 160.826V340.366C579 355.689 562.899 365.654 549.203 358.792L431.027 299.643V160.826C431.027 141.306 420.007 123.466 402.582 114.744L295.931 61.3638V20.6413Z" fill="#121212"/>
</svg>